<?xml version="1.0" encoding="UTF-8"?> <!-- Generator: Adobe Illustrator 24.0.1, SVG Export Plug-In . SVG Version: 6.00 Build 0) --> <svg xmlns="http://www.w3.org/2000/svg" xmlns:xlink="http://www.w3.org/1999/xlink" id="Layer_1" x="0px" y="0px" viewBox="0 0 246.6 246.6" style="enable-background:new 0 0 246.6 246.6;" xml:space="preserve"> <style type="text/css"> .st0{fill:#747C84;} .st1{fill:#FFEE00;} .st2{fill:#FF000C;} .st3{fill:#4AA8FF;} .st4{fill:#A82CA6;} .st5{fill:#77E000;} .st6{fill:#FFA600;} </style> <g> <path class="st0" d="M74.4,211v-28.3h-2.2v-2.2h8.4c3.2,0,4.4,2.6,4.4,6.2v4.2c0,4.4-1.9,6.2-4.4,6.2h-3.8V211h3.5v2.2h-8.1V211 H74.4L74.4,211z M82.6,186.3c0-2.6-1-3.6-2.5-3.6h-3.3v12.4h3.4c1.8,0,2.4-1.5,2.4-3.6V186.3z"></path> <polygon class="st0" points="98.9,182.7 93.7,182.7 93.7,195.8 98.2,195.8 98.2,198 93.7,198 93.7,211 98.9,211 98.9,201.5 101.4,201.5 101.4,213.1 89.1,213.1 89.1,211 91.2,211 91.2,182.7 89.1,182.7 89.1,180.5 101.4,180.5 101.4,192.2 98.9,192.2 "></polygon> <path class="st0" d="M117.5,180.5v11.6h-2.4v-5.8c0-3-1.4-4.1-3.3-4.1c-2.3,0-3.3,1.8-3.3,4.1V208c0,2.4,1.4,3.4,3.3,3.4 c2.4,0,3.4-1.4,3.4-3.4v-6.6h2.4v6.4c0,4.1-2.4,5.7-5.8,5.7c-4.1,0-5.7-2.3-5.7-5.7v-21.9c0-4.1,2.2-5.7,5.3-5.7 c2.2,0,3.3,0.9,3.7,2.2h0.1l0.3-1.8L117.5,180.5L117.5,180.5z"></path> <path class="st0" d="M138.2,182.7H136l-5,26.4c-0.6,2.9-1.9,4-4.6,4h-1.9V211h1.8c1.6,0,2.1-0.9,2.3-2.2l0.9-5.1H128l-4.8-21.1H121 v-2.2h7v2.2h-2.3l4.2,19l3.2-19h-2.2v-2.2h7.1v2.3H138.2z"></path> <path class="st0" d="M143.5,211v-28.3h-2.2v-2.2h8.4c3.2,0,4.4,2.6,4.4,6.2v4.2c0,4.4-1.9,6.2-4.4,6.2h-3.8V211h3.5v2.2h-8.1V211 H143.5L143.5,211z M151.8,186.3c0-2.6-1-3.6-2.5-3.6H146v12.4h3.4c1.8,0,2.4-1.5,2.4-3.6L151.8,186.3L151.8,186.3z"></path> <path class="st0" d="M169.7,180.5v11.6h-2.4v-5.8c0-3-1.4-4.1-3.3-4.1c-2.3,0-3.3,1.8-3.3,4.1V208c0,2.4,1.4,3.4,3.3,3.4 c2.4,0,3.4-1.4,3.4-3.4v-6.6h2.4v6.4c0,4.1-2.4,5.7-5.8,5.7c-4.1,0-5.7-2.3-5.7-5.7v-21.9c0-4.1,2.2-5.7,5.3-5.7 c2.2,0,3.3,0.9,3.7,2.2h0.1l0.3-1.8L169.7,180.5L169.7,180.5z"></path> <path class="st1" d="M114.5,126.4c0,4.7,0.3,9.3,1,13.8s1.7,8.9,3.1,13.2c0.5,1.6,1.1,3.4,1.8,5.1l0.9,2.5l0.5,1.3l0.1,0.3l0.1,0.2 c0,0.1,0.1,0,0.1,0l0.7-0.2l5.1-1.8c0.8-0.3,1.7-0.6,2.5-0.9l1.9-0.7c4.1-1.7,8.1-3.7,12-5.9c7.7-4.4,14.8-9.9,21-16.6 c3.1-3.3,5.9-6.8,8.4-10.7c2.5-3.8,4.8-7.9,6.6-12.1c0.2,0.1,0.6,0.3,0.8,0.4c5.6-11.9,8.4-25.4,8-38.9c-0.3-5.6-1.6-10.4-3-14.1 c1.9,9.7,2.2,19.9,0.5,30c-1.7,10-5.1,19.8-10.3,28.7s-12,16.8-19.8,23.4c-3.9,3.3-8.1,6.2-12.4,8.8c-1.1,0.7-2.2,1.3-3.3,1.9 c-1.1,0.6-2.2,1.2-3.4,1.7c-1.1,0.6-2.2,1.1-3.5,1.6l-3.7,1.5c1-0.5,2.2-0.9,3.2-1.3c1-0.4,2-0.9,2.9-1.4c2-0.9,3.9-2,5.9-3.1 c3.8-2.2,7.7-4.8,11.2-7.5c3.6-2.8,6.9-5.9,10-9.1c3.1-3.2,5.9-6.6,8.4-10c7.1-9.8,11.7-20.9,13.9-31.9c2.2-11.1,2-22.4-0.3-33.2 c-0.3-1.2-0.5-2.3-0.7-3.6c-0.7-1.4-1.3-2.7-2-3.8c-1.4-2.2-2.6-3.6-3.3-3.3c-0.3,0.1-0.5,0.7-0.4,1.8c0,0.3,0.1,0.7,0.1,1 c-0.1,0-0.1,0-0.1-0.1c-0.3-0.7-0.6-1.5-0.8-2.2c-4.2,1.4-8.3,3.2-12.2,5.1c-1.3,0.6-2.6,1.1-4.1,1.8c-0.1-0.2-0.4-0.6-0.5-0.7 c4.2-2.2,6.7-3.5,8.5-4.3c1.6-0.8,2.2-1.4,2.2-1.8c0-0.7-2-0.7-1-1.8c-4.6,1.8-9,4-13.3,6.4s-8.5,5.1-12.4,8 c-1,0.7-2.3,2.1-3.7,3.3c-1.4,1.2-2.6,2.6-3.6,3.5c-5.1,5.2-9.4,11.1-13,17.3c-3.6,6.3-6.3,12.9-8.2,19.8c-1.9,6.9-2.8,14-2.8,21.2 c0,7.1,0.9,14.1,2.7,21c0.2,0.8,0.5,1.7,0.7,2.5l1,3.2l1.6,4.4l0.8,2.2l0.4,1.1l0.2,0.6l0.1,0.3l0.1,0.1c0,0.1,0.1,0,0.1,0l8.7-3.2 l3-1.2c0.8-0.4,1.6-0.7,2.3-1c6.4-2.9,12.4-6.6,18-10.8s10.7-9.1,15.2-14.5s8.4-11.4,11.5-17.8c-8.1,16.5-21.2,29.6-36.3,38.4 c-3.8,2.2-7.8,4.2-11.8,5.8l-0.8,0.4c-0.5,0.2-0.8,0.4-1.3,0.6l-2.7,0.9l-5.3,2l-0.4,0.1c-0.1,0-0.1-0.2-0.2-0.3l-0.3-0.7l-0.5-1.3 l-1-2.7l-1-2.7c-0.2-0.5-0.3-0.9-0.5-1.3L118,154c-1.4-4.2-2.3-8.6-3-13.1c-0.4-2.2-0.6-4.5-0.7-6.7s-0.2-4.6-0.1-6.8 C114.3,126.9,114.4,127.7,114.5,126.4"></path> <path class="st2" d="M124.9,93.6c-0.3-0.6-0.6-1.1-0.8-1.7C124.5,92.5,124.7,93,124.9,93.6"></path> <path class="st2" d="M125.9,95.5c-0.3-0.7-0.6-1.3-0.8-1.9C125.3,94.1,125.6,94.8,125.9,95.5"></path> <path class="st2" d="M130.3,107.6c-1.1-4.1-2.6-8.1-4.4-12.1c6.2,14.1,8.4,29.6,6.5,44.5c-0.3,2.2-0.7,4.4-1.1,6.6 c-0.6,2.2-1,4.3-1.7,6.5l-0.7,2.2L128,158l-2,5.3l-0.1,0.4c-0.1,0.1-0.2-0.1-0.3-0.1l-0.7-0.2l-1.3-0.5l-2.7-0.9l-2.7-0.9 c-0.5-0.2-0.9-0.3-1.3-0.5l-1.1-0.5c-8.2-3.3-16.1-7.7-23.3-13.3c0.3,0.1,1,0.4,0.1-0.6c7.4,5.4,15.4,9.8,23.7,13.2 c0.7,0.3,1.6,0.7,2.4,0.9l2.5,0.9l2.5,0.9l1.3,0.5l0.3,0.1l0.2,0.1c0.1,0,0.1-0.1,0.1-0.1l0.2-0.7l1.9-5.1c0.7-1.6,1.2-3.7,1.5-4.5 c1.3-4.3,2.3-8.6,2.9-13.1c1.2-8.9,0.8-18-0.9-26.9c-1.9-8.9-5.3-17.5-10.3-25.3c0.2-0.1,0.6-0.4,0.7-0.5 c-6.7-11.3-16-21.2-27.1-28.8c-4.7-3.1-9.1-5.1-12.9-6.2c8.7,4.5,16.9,10.4,24.2,17.5c7.2,7.1,13.3,15.5,17.7,24.8 c2.2,4.7,4,9.5,5.4,14.4c1.3,5,2.2,10.1,2.5,15.3c0.4,5.1,0.2,10.3-0.5,15.4c-0.3,2.5-0.7,5.1-1.3,7.5l-0.9,3.7l-1.2,3.9 c0.4-1.1,0.7-2.2,1-3.4c0.3-1,0.6-2.1,0.7-3.2c0.3-1,0.5-2.2,0.7-3.3s0.5-2.2,0.6-3.3c0.7-4.4,0.8-9,0.7-13.6 c-0.2-9.2-2.2-18.2-4.9-26.2c-4.1-11.5-10.7-21.3-18.4-29.5s-17-14.2-26.7-19.2c-1-0.6-2.2-1.1-3.2-1.6c-1.6-0.4-2.9-0.7-4.1-0.8 c-2.5-0.3-4.4-0.3-4.6,0.4c-0.1,0.3,0.2,0.7,1,1.4c0.3,0.2,0.6,0.4,0.8,0.6c0,0-0.1,0-0.1,0.1c-0.7-0.3-1.5-0.6-2.2-0.8 c-1.7,4.2-2.9,8.4-3.7,12.7c-0.4,1.3-0.7,2.7-1.1,4.2c-0.2,0-0.7-0.1-0.9-0.1c0.8-4.7,1.6-7.6,1.9-9.4c0.4-1.8,0.3-2.5,0-2.7 c-0.6-0.5-1.9,1-2.1-0.3c-3,9.5-4.3,19.4-4.3,29.4c0.2,2.5,0.7,7.5,1.3,9.9c0.7,3.7,1.7,7.1,2.8,10.6c1.2,3.5,2.5,6.8,4.1,10 c3.1,6.6,7.1,12.5,11.7,18c9.2,11,20.9,19.4,33.5,25.1c0.7,0.4,1.6,0.7,2.4,1l1.2,0.5l0.8,0.4c0.4,0.2,0.7,0.3,1,0.4l4.4,1.6 l2.2,0.7l1.1,0.4l0.6,0.2l0.3,0.1l0.1,0.1c0,0,0-0.1,0.1-0.1l3.2-8.7l0.9-3.1c0.3-0.8,0.5-1.7,0.7-2.5c1.7-6.8,2.6-13.9,2.4-21 C133.2,121.5,132.1,114.4,130.3,107.6"></path> <path class="st2" d="M124.2,91.9c-0.7-1.3-1.3-2.6-2.1-3.9C122.8,89.3,123.5,90.6,124.2,91.9"></path> <path class="st3" d="M153,77.4c-1.8-6.6-4.3-12.8-7.4-18.3c-3.1-5.5-6.7-10.4-10.5-14.4c-0.8-0.9-1.6-1.7-2.3-2.4s-1.4-1.3-2.1-1.9 c-1.3-1-2.3-1.8-3.1-2.2c-1.6-0.9-2.1-0.7-1.8,0.3c0.5,1.7,3.3,5.3,7,10.9c-2.6-3.2-5.4-6.3-8.6-9.2c-0.7,0.7-1.4,1.3-2.1,2.1 c-0.7,0.5-1.7,1.1-2.8,2.1c-0.8,0.8-2,2.2-2.9,3.3c-0.5,0.6-0.9,1-1.2,1.4c-0.3,0.4-0.5,0.6-0.5,0.6c-0.9,0.5-0.9-0.3-0.9-1 c-9.9,12-16.4,26.8-18.3,42.2c-1,9.6-0.4,19.5,1.9,28.7c2.3,9.3,6.2,18.2,11.3,26c-5.3-8.1-9.2-17-11.5-26.3 c-2.2-9.4-2.8-19-1.8-28.6c1.7-15.5,8.1-30.5,18.1-42.7c-0.1-0.7-0.6-1-2.9,1.6c-1.8,1.7-5,6.3-7.7,11.7 c-2.8,5.4-5.1,11.8-6.4,16.5c-2,6.5-3.1,13.3-3.3,20.3c-0.3,7,0.6,14.1,2.2,21c3.3,13.8,10.3,26.6,19.3,36.8l1.4,1.6l0.5,0.6 c0.2,0.2,0.4,0.5,0.7,0.7l1.4,1.3l5.5,5.4l4.3-4.1l2.2-2.1c0.4-0.4,0.7-0.7,1-1l0.7-0.8l2.2-2.3l2.1-2.4c2.7-3.3,5.2-6.7,7.4-10.5 c1.1-1.8,2.1-3.7,3.1-5.6c0.8-2,1.9-3.8,2.6-5.9c1.6-3.9,2.9-8.1,3.8-12.2c1.5-6.6,2.3-13.7,2.2-20.6C155.7,91,154.8,83.9,153,77.4 "></path> <path class="st4" d="M134.7,127.5c-0.4-10.4-2.6-20.6-6.6-30c-2.1-4.6-4.4-9.2-7.2-13.3c-0.7-1-1.3-2.2-2.1-3.1l-2.2-3l-1.1-1.5 c-0.4-0.5-0.8-0.9-1.2-1.4l-1.7-1.9c-0.7-0.8-1.5-1.7-2.2-2.4l-4.6-4.6l-2.3-2.2l-1.1-1.1l-0.6-0.6l-0.3-0.3 c-0.1-0.1-0.2-0.3-0.3-0.1L97,74.3c-0.7,1.9-1.3,4.8-1.5,5.5c-0.4,1.2-0.6,2.4-0.7,3.7c-0.2,1.2-0.5,2.4-0.7,3.7l-0.4,3.7 c-0.4,2.5-0.3,5-0.5,7.5c-0.1,1.2,0.1,2.5,0.1,3.7c0.1,1.2,0.1,2.5,0.2,3.7l0.4,3.7l0.2,1.9l0.4,1.9l0.7,3.7 c0.3,1.2,0.7,2.4,0.9,3.7c-0.9-3.2-1.4-6.4-2-9.5c-0.2-1.6-0.4-3.2-0.5-4.8l-0.1-1.2V104l-0.4-2.2C93,95.4,93.5,89,94.8,82.9 c0.2-0.7,0.3-1.6,0.5-2.3L96,78c0.7-2.7,1.6-5.1,2.4-7.6s1.8-5.1,2.6-7.6c0.1-0.6,0.4,0,0.6,0.2l0.7,0.7l1.4,1.4l2.9,2.8l2.8,2.8 l1.4,1.4l1.4,1.6l2,2.2c0.6,0.6,1,1.2,1.5,1.9c0.9,1.2,2,2.5,2.9,3.8s1.8,2.7,2.7,4c-0.2-0.1-0.7-0.5-0.3,0.4 c-0.9-1.3-1.9-2.7-2.8-4c-1-1.3-2.1-2.5-3-3.8c-0.5-0.7-1-1.3-1.6-1.9l-2-2.2l-1.3-1.5l-1.3-1.3l-2.7-2.6l-2.7-2.6l-1.3-1.3 l-0.7-0.7l-0.2-0.2l-0.1-0.1v0.1l-0.2,0.5l-2.5,7.1L97.4,75c-0.4,1.1-0.7,2.5-1.1,3.7L95.6,81l-0.5,2.3c-0.3,1.6-0.7,3.1-0.8,4.7 l-0.6,4.8c-0.2,3.2-0.5,6.4-0.3,9.6c0.2,6.5,1.2,12.9,3.3,19.2c-0.2,0.1-0.7,0.2-0.8,0.3c2.5,9.1,6.5,17.8,11.9,25.6 c1.2,1.6,2.3,3,3.6,4.3c1.2,1.2,2.4,2.2,3.6,3.1c-8.9-10.9-15.5-24.2-18.6-38.6c-1.5-7.1-2.1-14.6-1.5-21.8l0.2-1.5l0.2-1.4 l0.3-2.7c0.2-1.8,0.6-3.6,0.9-5.3c0.2-0.8,0.4-1.8,0.6-2.6l0.8-2.9l0.6-1.9l0.6-1.8c0.2-0.5,0.4-1,0.6-1.5 c-1.2,3.5-2.2,7.3-2.6,9.4c-0.3,1.6-0.6,3.2-0.8,4.8c-0.2,1.6-0.4,3.2-0.6,4.8c-0.6,6.5-0.4,12.9,0.3,19c1,8.6,3.7,16.6,7,23.9 c3.5,7.3,7.9,13.8,12.8,19.8c0.6,0.7,1,1.4,1.6,2c0.9,0.6,1.9,1.1,2.6,1.6c1.5,0.7,2.7,1.1,3.3,0.8l0.6,0.4l0,0l1.5-0.3 c0-0.1-0.1-0.1-0.2-0.2l-1.2,0.3l0,0l-0.5-0.3c0.2-0.4,0-1.1-0.7-2.2l0,0c0.5,0.5,0.9,0.9,1.4,1.4l0,0l0,0c1.1-3,2.2-6,2.9-9 c0.4-0.9,0.7-1.9,1-2.9c0.2,0.1,0.7,0.2,0.8,0.2c-0.9,3.3-1.4,5.3-1.6,6.6c-0.3,1.3-0.2,1.8,0.1,2.1c0.6,0.4,1.8-0.6,2,0.5 c2.2-6.6,3.8-13.5,5-20.6C134.6,132.8,134.7,129.2,134.7,127.5"></path> <path class="st5" d="M116.1,134.5c0.3,1.7,0.5,3.4,0.7,5c0.4,1.6,0.7,3.3,1,4.9c0.2,0.8,0.4,1.6,0.6,2.4l0.7,2.6l0.6,1.9l0.7,1.8 l1.3,3.7l1.3,3.7l0.7,1.9l0.3,0.9l0.1,0.2v0.1c0,0.1,0.1,0,0.1-0.1l0.4-0.4l5.5-5.3l2.7-2.7c0.5-0.5,0.9-0.9,1.3-1.4l1.2-1.4 c1-1.2,2.2-2.3,3.2-3.7l3-3.8c0.9-1.3,1.8-2.7,2.7-4c0.5-0.7,0.9-1.3,1.3-2.1l1.2-2.2l1.2-2.2l0.6-1.1l0.5-1.1c0.7-1.5,1.3-3,2-4.5 c0.6-1.5,1.1-3.1,1.7-4.7c0.6-1.6,0.9-3.2,1.4-4.8c0.2-0.8,0.4-1.6,0.6-2.4s0.3-1.7,0.5-2.4c0.2,0,0.7,0.1,0.8,0.2 c2-9.4,2.4-19.1,1.2-28.9c-0.3-2-0.8-3.8-1.3-5.5s-1.2-3.2-1.9-4.5c1.6,7,2.4,14.3,2.2,21.7s-1.2,14.8-3.3,22s-5.1,14.1-8.8,20.5 l-3,4.7c-1,1.5-2.2,3-3.4,4.4l-0.8,1.1l-0.9,1l-2,2.2c-1.7,2.1-3.7,3.7-5.5,5.6c1.6-1.6,3.2-3.1,4.7-4.8c1.1-1.3,2.3-2.7,3.5-4 c1.9-2.6,4-5.1,5.6-8.1c1.9-2.7,3.3-5.7,4.9-8.5c0.7-1.5,1.3-2.9,2.1-4.4l0.5-1.1l0.5-1.1c0.3-0.7,0.6-1.5,0.8-2.2 c3.1-8.2,4.6-16.7,4.9-24.9c0.3-8.2-0.7-16.2-2.5-24.1c-0.2-0.8-0.4-1.7-0.6-2.5c-0.7-1-1.2-1.9-1.7-2.6c-1.9-2.5-3.6-3.5-3.4,0.2 l0,0c-0.3-0.7-0.5-1.3-0.7-2c-2.4,2.2-4.6,4.5-6.7,6.9c-0.7,0.7-1.5,1.4-2.2,2.2c-0.2-0.1-0.6-0.4-0.7-0.6c2.3-2.5,3.7-4.2,4.5-5.3 c0.8-1,0.9-1.6,0.8-1.9c-0.3-0.7-1.9-0.3-1.6-1.3c-5,5.1-9.5,10.6-13.9,16.4c-0.8,1.6-2.7,4.7-3.5,6.4c-4.6,9.5-7.5,19.8-8.2,30.1 l-0.2,3.8c0,0.7-0.1,1.3-0.1,2l0.1,2l0.1,3.8c0.1,1.3,0.3,2.5,0.4,3.8c0.2,1.3,0.2,2.5,0.5,3.8l0.7,3.7l0.4,1.9l0.5,1.9l0.6,2.2 c0.3,1.1,0.6,2.2,0.9,3.2l2.2,6.3l1.1,3.2l0.6,1.6l0.3,0.7l0.1,0.4l0.1,0.2c0,0.1,0,0.2,0.1,0.1l9.5-9.4c0.7-0.7,1.5-1.6,2.2-2.4 l1.4-1.7c0.8-0.9,1.7-1.9,2.4-2.9c1.5-2.1,3.1-4,4.4-6.2c5.5-8.5,9.7-18.1,12-28.2c-1.6,6.5-3.7,12.6-6.6,18.5 c-3,5.8-6.4,11.2-10.4,16.2c-0.5,0.7-1,1.2-1.5,1.9l-1.7,1.9c-1.8,2.2-3.7,3.9-5.7,5.9c-2,1.9-3.8,3.8-5.8,5.7l-0.2,0.2l-0.1-0.2 l-0.2-0.5l-0.4-0.9l-0.7-2l-1.4-3.8l-1.4-3.8c-0.2-0.7-0.5-1.3-0.7-1.9l-0.6-2.1l-0.7-2.6c-0.2-0.7-0.5-1.6-0.6-2.3 c-0.3-1.6-0.7-3.2-0.9-4.9c-0.3-1.6-0.4-3.3-0.6-5C115.8,134.9,116,135.4,116.1,134.5"></path> <path class="st6" d="M123.7,162c8.1-20.7,7.4-42.3-0.3-61.5C115.9,119.8,115.4,141.4,123.7,162C123.7,162,123.7,162.1,123.7,162 C123.7,162.1,123.7,162,123.7,162"></path> <path class="st6" d="M134.3,125.9l-0.3-2.8c0-0.3,0-0.4-0.1-0.7l-0.2-1.2l-0.4-2.4c-0.4-3.3-1.2-6.3-1.9-9.3 c-0.4-1.5-0.8-2.7-1.2-4.1l-0.7-2c-0.2-0.7-0.5-1.2-0.7-1.9c-1.9-5-3.7-10-5.6-15l-4.3,12l-1,2.8c-0.4,0.9-0.7,1.8-0.9,2.9 l-0.9,3.1l-0.5,1.6c-0.2,0.6-0.3,1.1-0.4,1.7l-0.7,3.5c-0.1,0.6-0.3,1.1-0.4,1.8l-0.3,1.9l-0.6,3.7l-0.1,0.9v0.2v0.1v0.3l-0.1,1.1 c-0.1,1.5-0.3,2.9-0.3,4.4l-0.1,2.2v2.2c0-1.5,0-3,0.1-4.4c0.1-1.5,0.2-2.9,0.4-4.4c0-1,0.6-4,0.8-6.4l0.3-1.8 c0.1-0.6,0.3-1.1,0.4-1.7l0.7-3.4c0.1-0.6,0.3-1.1,0.4-1.7l0.5-1.5l0.9-3c0.3-1,0.7-1.9,0.9-2.8l0.9-2.7c1.4-3.8,2.8-7.7,4.2-11.5 c1.3,3.5,2.6,6.9,3.9,10.5c0.7,1.7,1.2,3.3,1.9,5c0.6,1.7,1.1,3.7,1.8,5.4c-0.2,0-0.5-0.2-0.3,0.7c-0.6-1.7-1.2-3.4-1.8-5.1 c-0.6-1.6-1.2-3.1-1.8-4.6c-1.2-3.4-2.5-6.6-3.7-9.9c-1.3,3.7-2.7,7.2-4.1,10.9c-1.3,3.4-2.5,7-3.7,11.3c-0.5,2.2-1.1,4.4-1.4,6.8 l-0.6,3.6l-0.1,0.5v0.3v0.6l-0.1,1.1l-0.2,2.2c0,0.7,0,1.5,0,2.2c0,1.5,0,3,0.1,4.5c-0.2,0-0.7,0-0.8,0c0.1,6.2,0.7,12.4,2.1,18.6 c0.4,1.3,0.7,2.4,1.2,3.5c0.5,1,1,2,1.6,2.7c-2.2-9-3.4-18.6-3.1-28.3c0.1-1.2,0.1-2.4,0.2-3.7l0.4-3.7l0.7-5.1 c0.3-1.7,0.7-3.3,1-5c1.6-6.5,3.5-11.4,5.5-16.9c-0.2,0.7-0.5,1.2-0.7,1.9c-0.2,0.6-0.4,1.2-0.7,1.8c-0.4,1.2-0.8,2.4-1.2,3.7 c-0.4,1.2-0.7,2.4-1.2,3.7c-0.4,1.3-0.7,2.6-1,3.9c-0.4,1.3-0.7,2.8-0.9,4.2l-0.5,2.2l-0.4,2.2l-0.4,2.2l-0.2,1.1 c-0.1,0.4-0.1,0.6-0.1,0.8c-0.1,1-0.3,2.1-0.4,3c-1,11.4,0.7,21.8,3.4,31.8c0.1,0.6,0.3,1.1,0.4,1.7c0.5,0.6,0.9,1.1,1.4,1.6 c0.8,0.8,1.7,1.3,2.3,1.2l0.9,0.8v-0.1h0.9v-0.1H123v-0.1l-0.7-0.7c0.5-0.3,0.7-1.1,0.7-2.5c1.1-1.1,2.3-3.1,3.5-5.7 c0.2,0.1,0.7,0.2,0.8,0.3c-1.5,4.2-1.5,5.4-0.9,5.7c0.6,0.4,1.7-0.2,2,0.6c1.5-4.4,3-8.7,4.5-13.2c0.2-1.1,0.6-3.5,0.7-4.6 c0.5-3.8,0.7-7.7,0.7-11.4C134.5,129.6,134.4,127.7,134.3,125.9 M122,150.1c-1-5-1.7-10-1.8-15.1c-0.1-2.2-0.1-4.3,0.1-6.5 c0-1,0.1-2.2,0.3-3.2c0.1-1,0.2-2.3,0.3-2.6c0.4-2.2,0.9-3.7,1.5-4.5c-0.6,0.9-1,2.4-1.4,4.6l-0.1,0.4c0,0.1-0.1,0.5-0.1,0.7 l-0.2,1.6c-0.1,1-0.2,2.2-0.3,3.2c-0.2,2.2-0.2,4.2-0.2,6.4c0.2,4.8,0.8,9.5,2,14.3C122.2,149.7,122.1,149.8,122,150.1 M124.2,136.1c-0.1,0.7-0.1,1.4-0.2,2.2c-0.1,0.7-0.2,1.4-0.3,2.2c-0.2,1.8-0.5,3.6-0.8,5.3c-0.1-0.5-0.2-1-0.3-1.5 c-0.3-1.3-0.5-2.5-0.5-3.6c0-0.7-0.1-1.5-0.1-2.2v-2.2c-0.1-1.5,0-2.9,0-4.4s0.2-3,0.2-4.5l0.2-2.2l0.1-1.1l0.1-0.5v-0.1 c0.1-0.7,0.3-0.9,0.4-1.1s0.3-0.2,0.4,0.3c0,0.2,0.1,0.4,0.1,0.5c0,1-0.1-0.2,0.3,0.6l0,0l0,0v0.1l0.1,0.6l0.1,1 c0.1,0.7,0.2,1.4,0.2,2.2c0.1,1.4,0.2,2.9,0.1,4.4C124.4,133.2,124.3,134.7,124.2,136.1"></path> </g> </svg> 